<svg xmlns="http://www.w3.org/2000/svg" viewBox="0 0 282.67 164"><defs><style>.cls-1{fill:#ffbf29;}</style></defs><title>icon</title><g id="Layer_2" data-name="Layer 2"><g id="Layer_1-2" data-name="Layer 1"><g id="LOGO"><g id="PERSON"><path class="cls-1" d="M151.88,52.16l26.66-24.7a11.14,11.14,0,0,1,9.25-2.84l33.32,5.13a9.9,9.9,0,0,1,5.15,2.45l18.1,16.46A11.21,11.21,0,0,1,248,55.75l1.35,12.78a3.15,3.15,0,0,0,3.56,2.8l17-2.35a11.12,11.12,0,0,1,12.48,9.13l.14.82a11.13,11.13,0,0,1-9.43,12.9l-28.87,4a12.64,12.64,0,0,1-13.91-9.09h0a3.16,3.16,0,0,0-5.46-1.17L210.25,103a3.14,3.14,0,0,0,.16,4.22h0a20.84,20.84,0,0,1,3.27,24.65L199,158.28a11.12,11.12,0,0,1-15.85,3.88h0a11.14,11.14,0,0,1-3.46-14.93l12.2-20.71a3.16,3.16,0,0,0-.55-3.89l-25.1-23.82a11.12,11.12,0,0,1-.57-15.55l28-30.82a3.15,3.15,0,0,0-1.72-5.21h0a3.12,3.12,0,0,0-2.83.85L168,69a11.12,11.12,0,0,1-16-.39l-.69-.75A11.13,11.13,0,0,1,151.88,52.16Z"/><circle class="cls-1" cx="253.19" cy="19.19" r="19.19"/><path class="cls-1" d="M162.23,101.26l17.06,16-44,27.21a11.13,11.13,0,0,1-14.92-3.05h0a11.12,11.12,0,0,1,3.17-15.83Z"/></g><path class="cls-1" d="M69.89,74.67,91.38,23.78a6.33,6.33,0,0,0-9-8L3.12,62.46A6.33,6.33,0,0,0,5.78,74.21L60.85,80A9.05,9.05,0,0,0,69.89,74.67Z"/><path class="cls-1" d="M142.68,79H127.12a14.86,14.86,0,0,0-1.67-11.23L113.8,48h29.88A7.2,7.2,0,0,0,151,41.21,7,7,0,0,0,144,34H107a2.46,2.46,0,0,1-2.12-1.21l-2.58-4.38A3.49,3.49,0,0,0,96,28.6L76.48,75.79A16.82,16.82,0,0,1,59,86.08L8.3,80.27a3.49,3.49,0,0,0-3.22,5.41L28.28,125c4.07,6.91,12.64,9.4,19.14,5.57l6.65-3.92A19.46,19.46,0,0,1,63.94,124h44.74a7.2,7.2,0,0,0,7.29-6.79,7,7,0,0,0-7-7.21H82.39l28.84-17H143a7,7,0,0,0,7-7.21A7.2,7.2,0,0,0,142.68,79Z"/></g></g></g></svg>